# xmcd CD database file
#
# Track frame offsets:
#	150
#	12946
#	28189
#	40905
#	54125
#	66349
#	76253
#	86516
#	103795
#	119738
#	138369
#	151486
#	161076
#	172506
#	185949
#	198924
#	217132
#	231028
#	245480
#	262600
#	281125
#	295509
#	312501
#	326511
#	340624
#
# Disc length: 4775 seconds
#
# Revision: 2
# Processed by: cddbd v1.5.2PL0 Copyright (c) Steve Scherf et al.
# Submitted via: CDex 1.70beta2
#
DISCID=6212a519
DTITLE=Mary Schneider - The Ultimate Collection
DYEAR=2002
DGENRE=Country
TTITLE0=Jolene 
TTITLE1=Mule Skinner Blues
TTITLE2=Cattle Call
TTITLE3=Drawf's Yodel Song
TTITLE4=I Remember You
TTITLE5=He Taught Me To Yodel
TTITLE6=Swiss Maid
TTITLE7=Range In The Western Sky
TTITLE8=Train Medley
TTITLE9=I Just Wanna Yodel Like You
TTITLE10=My City Of Sydney
TTITLE11=Mei Vata Is A Appenzeller
TTITLE12=Yiddisher Yodel
TTITLE13=Wimoweh
TTITLE14=Yodelling Gilbert And Sullivan
TTITLE15=Slim Whitman Medley
TTITLE16=Lonely Goatherd
TTITLE17=Captain Cook
TTITLE18=Hooked On Yodelling
TTITLE19=Hungry Years
TTITLE20=Starlight Serenade
TTITLE21=Harry Torrani Medley
TTITLE22=Yodel And Smile
TTITLE23=Ghost Riders - Rawhide - Mule Train
TTITLE24=Yodelling Overtures
EXTD=YEAR: 2002
EXTT0=
EXTT1=
EXTT2=
EXTT3=
EXTT4=
EXTT5=
EXTT6=
EXTT7=
EXTT8=
EXTT9=
EXTT10=
EXTT11=
EXTT12=
EXTT13=
EXTT14=
EXTT15=
EXTT16=
EXTT17=
EXTT18=
EXTT19=
EXTT20=
EXTT21=
EXTT22=
EXTT23=
EXTT24=
PLAYORDER=
